# xmcd CD database file
#
# Track frame offsets:
#	150
#	17689
#	45410
#	84282
#	103061
#	122047
#	143191
#	172420
#	194392
#	219416
#	238962
#	255849
#	281818
#	300482
#
# Disc length: 4274 seconds
#
# Revision: 0
# Processed by: cddbd v1.5.1PL0 Copyright (c) Steve Scherf et al.
# Submitted via: CDex 1.50
#
DISCID=c310b00e
DTITLE=Jamiroquai - Greatest Hits
DYEAR=1996
DGENRE=New Age
TTITLE0=When  you gonna learn (Digeridoo)
TTITLE1=Too young to die
TTITLE2=Blow your mind
TTITLE3=Emergency on Planet Earth
TTITLE4=Whatever it is, I just cant stop it
TTITLE5=Hooked up
TTITLE6=Space Cowboy
TTITLE7=Half the man
TTITLE8=Mr Moon
TTITLE9=Stillness in time
TTITLE10=Do you know where you're coming from (with M-Beat)
TTITLE11=Virtual Insanity
TTITLE12=Cosmic girl
TTITLE13=Everyday
EXTD=YEAR: 1996
EXTT0=
EXTT1=
EXTT2=
EXTT3=
EXTT4=
EXTT5=
EXTT6=
EXTT7=
EXTT8=
EXTT9=
EXTT10=
EXTT11=
EXTT12=
EXTT13=
PLAYORDER=
